HIERARCHY
ROOT Hips
{
  OFFSET 0.000 82.159 0.000
  CHANNELS 6 Xposition Yposition Zposition Zrotation Xrotation Yrotation
  JOINT LeftUpLeg
  {
    OFFSET 3.002 0.623 1.167
    CHANNELS 6 Xposition Yposition Zposition Zrotation Xrotation Yrotation
    JOINT LeftLeg
    {
      OFFSET 0.000 -45.252 0.000
      CHANNELS 6 Xposition Yposition Zposition Zrotation Xrotation Yrotation
      JOINT LeftFoot
      {
        OFFSET 0.000 -37.530 0.000
        CHANNELS 6 Xposition Yposition Zposition Zrotation Xrotation Yrotation
        End Site
        {
          OFFSET 0.000 0.000 12.100
        }
      }
    }
  }
  JOINT RightUpLeg
  {
    OFFSET -3.002 0.623 1.167
    CHANNELS 6 Xposition Yposition Zposition Zrotation Xrotation Yrotation
    JOINT RightLeg
    {
      OFFSET 0.000 -45.252 0.000
      CHANNELS 6 Xposition Yposition Zposition Zrotation Xrotation Yrotation
      JOINT RightFoot
      {
        OFFSET 0.000 -37.530 0.000
        CHANNELS 6 Xposition Yposition Zposition Zrotation Xrotation Yrotation
        End Site
        {
          OFFSET 0.000 0.000 12.100
        }
      }
    }
  }
  JOINT Spine
  {
    OFFSET 0.000 34.300 0.000
    CHANNELS 6 Xposition Yposition Zposition Zrotation Xrotation Yrotation
    JOINT Spine1
    {
      OFFSET 0.000 25.000 0.000
      CHANNELS 6 Xposition Yposition Zposition Zrotation Xrotation Yrotation
      JOINT LeftShoulder
      {
        OFFSET 1.800 -0.600 0.200
        CHANNELS 6 Xposition Yposition Zposition Zrotation Xrotation Yrotation
        JOINT LeftArm
        {
          OFFSET 13.714 0.000 0.000
          CHANNELS 6 Xposition Yposition Zposition Zrotation Xrotation Yrotation
          JOINT LeftForeArm
          {
            OFFSET 26.603 0.000 0.000
            CHANNELS 6 Xposition Yposition Zposition Zrotation Xrotation Yrotation
            JOINT LeftHand
            {
              OFFSET 24.110 0.000 0.000
              CHANNELS 6 Xposition Yposition Zposition Zrotation Xrotation Yrotation
              JOINT LeftHandThumb1
              {
                OFFSET 4.877 -1.044 3.608
                CHANNELS 6 Xposition Yposition Zposition Zrotation Xrotation Yrotation
                JOINT LeftHandThumb2
                {
                  OFFSET 2.665 0.000 0.000
                  CHANNELS 6 Xposition Yposition Zposition Zrotation Xrotation Yrotation
                  JOINT LeftHandThumb3
                  {
                    OFFSET 2.543 0.000 0.000
                    CHANNELS 6 Xposition Yposition Zposition Zrotation Xrotation Yrotation
                    End Site
                    {
                      OFFSET 2.667 0.000 0.000
                    }
                  }
                }
              }
              JOINT LeftHandIndex1
              {
                OFFSET 9.232 -0.301 2.144
                CHANNELS 6 Xposition Yposition Zposition Zrotation Xrotation Yrotation
                JOINT LeftHandIndex2
                {
                  OFFSET 4.225 0.000 -0.000
                  CHANNELS 6 Xposition Yposition Zposition Zrotation Xrotation Yrotation
                  JOINT LeftHandIndex3
                  {
                    OFFSET 2.654 0.000 0.000
                    CHANNELS 6 Xposition Yposition Zposition Zrotation Xrotation Yrotation
                    End Site
                    {
                      OFFSET 1.958 -0.000 0.000
                    }
                  }
                }
              }
              JOINT LeftHandMiddle1
              {
                OFFSET 8.920 0.000 -0.000
                CHANNELS 6 Xposition Yposition Zposition Zrotation Xrotation Yrotation
                JOINT LeftHandMiddle2
                {
                  OFFSET 4.863 0.000 -0.000
                  CHANNELS 6 Xposition Yposition Zposition Zrotation Xrotation Yrotation
                  JOINT LeftHandMiddle3
                  {
                    OFFSET 2.765 0.000 0.000
                    CHANNELS 6 Xposition Yposition Zposition Zrotation Xrotation Yrotation
                    End Site
                    {
                      OFFSET 2.006 0.000 0.000
                    }
                  }
                }
              }
              JOINT LeftHandRing1
              {
                OFFSET 8.689 -0.126 -2.087
                CHANNELS 6 Xposition Yposition Zposition Zrotation Xrotation Yrotation
                JOINT LeftHandRing2
                {
                  OFFSET 4.538 0.000 0.000
                  CHANNELS 6 Xposition Yposition Zposition Zrotation Xrotation Yrotation
                  JOINT LeftHandRing3
                  {
                    OFFSET 2.305 0.000 -0.000
                    CHANNELS 6 Xposition Yposition Zposition Zrotation Xrotation Yrotation
                    End Site
                    {
                      OFFSET 1.923 0.000 -0.000
                    }
                  }
                }
              }
              JOINT LeftHandPinky1
              {
                OFFSET 8.391 -0.817 -3.758
                CHANNELS 6 Xposition Yposition Zposition Zrotation Xrotation Yrotation
                JOINT LeftHandPinky2
                {
                  OFFSET 3.044 0.000 0.000
                  CHANNELS 6 Xposition Yposition Zposition Zrotation Xrotation Yrotation
                  JOINT LeftHandPinky3
                  {
                    OFFSET 1.975 0.000 0.000
                    CHANNELS 6 Xposition Yposition Zposition Zrotation Xrotation Yrotation
                    End Site
                    {
                      OFFSET 1.667 0.000 -0.000
                    }
                  }
                }
              }
            }
          }
        }
      }
      JOINT RightShoulder
      {
        OFFSET -1.800 -0.600 0.200
        CHANNELS 6 Xposition Yposition Zposition Zrotation Xrotation Yrotation
        JOINT RightArm
        {
          OFFSET -13.714 0.000 0.000
          CHANNELS 6 Xposition Yposition Zposition Zrotation Xrotation Yrotation
          JOINT RightForeArm
          {
            OFFSET -26.603 0.000 0.000
            CHANNELS 6 Xposition Yposition Zposition Zrotation Xrotation Yrotation
            JOINT RightHand
            {
              OFFSET -24.110 0.000 0.000
              CHANNELS 6 Xposition Yposition Zposition Zrotation Xrotation Yrotation
              JOINT RightHandThumb1
              {
                OFFSET -4.877 -1.044 3.608
                CHANNELS 6 Xposition Yposition Zposition Zrotation Xrotation Yrotation
                JOINT RightHandThumb2
                {
                  OFFSET -2.665 0.000 0.000
                  CHANNELS 6 Xposition Yposition Zposition Zrotation Xrotation Yrotation
                  JOINT RightHandThumb3
                  {
                    OFFSET -2.543 0.000 0.000
                    CHANNELS 6 Xposition Yposition Zposition Zrotation Xrotation Yrotation
                    End Site
                    {
                      OFFSET -2.667 0.000 0.000
                    }
                  }
                }
              }
              JOINT RightHandIndex1
              {
                OFFSET -9.232 -0.301 2.144
                CHANNELS 6 Xposition Yposition Zposition Zrotation Xrotation Yrotation
                JOINT RightHandIndex2
                {
                  OFFSET -4.225 0.000 0.000
                  CHANNELS 6 Xposition Yposition Zposition Zrotation Xrotation Yrotation
                  JOINT RightHandIndex3
                  {
                    OFFSET -2.654 0.000 0.000
                    CHANNELS 6 Xposition Yposition Zposition Zrotation Xrotation Yrotation
                    End Site
                    {
                      OFFSET -1.958 0.000 0.000
                    }
                  }
                }
              }
              JOINT RightHandMiddle1
              {
                OFFSET -8.920 0.000 -0.000
                CHANNELS 6 Xposition Yposition Zposition Zrotation Xrotation Yrotation
                JOINT RightHandMiddle2
                {
                  OFFSET -4.863 -0.000 0.000
                  CHANNELS 6 Xposition Yposition Zposition Zrotation Xrotation Yrotation
                  JOINT RightHandMiddle3
                  {
                    OFFSET -2.765 0.000 -0.000
                    CHANNELS 6 Xposition Yposition Zposition Zrotation Xrotation Yrotation
                    End Site
                    {
                      OFFSET -2.006 0.000 0.000
                    }
                  }
                }
              }
              JOINT RightHandRing1
              {
                OFFSET -8.689 -0.126 -2.087
                CHANNELS 6 Xposition Yposition Zposition Zrotation Xrotation Yrotation
                JOINT RightHandRing2
                {
                  OFFSET -4.538 0.000 0.000
                  CHANNELS 6 Xposition Yposition Zposition Zrotation Xrotation Yrotation
                  JOINT RightHandRing3
                  {
                    OFFSET -2.305 0.000 0.000
                    CHANNELS 6 Xposition Yposition Zposition Zrotation Xrotation Yrotation
                    End Site
                    {
                      OFFSET -1.923 0.000 0.000
                    }
                  }
                }
              }
              JOINT RightHandPinky1
              {
                OFFSET -8.391 -0.817 -3.758
                CHANNELS 6 Xposition Yposition Zposition Zrotation Xrotation Yrotation
                JOINT RightHandPinky2
                {
                  OFFSET -3.044 0.000 -0.000
                  CHANNELS 6 Xposition Yposition Zposition Zrotation Xrotation Yrotation
                  JOINT RightHandPinky3
                  {
                    OFFSET -1.975 0.000 0.000
                    CHANNELS 6 Xposition Yposition Zposition Zrotation Xrotation Yrotation
                    End Site
                    {
                      OFFSET -1.667 0.000 0.000
                    }
                  }
                }
              }
            }
          }
        }
      }
      JOINT Neck
      {
        OFFSET 0.000 0.800 0.000
        CHANNELS 6 Xposition Yposition Zposition Zrotation Xrotation Yrotation
        JOINT Head
        {
          OFFSET 0.000 7.300 0.000
          CHANNELS 6 Xposition Yposition Zposition Zrotation Xrotation Yrotation
          End Site
          {
            OFFSET 0.000 15.100 0.000
          }
        }
      }
    }
  }
}
MOTION
Frames:	4
Frame Time:	0.033333
-144.07233 83.65942 -223.62776 -1.52684 -1.96119 115.50874 -2.43087 0.80874 0.41993 8.71658 3.82922 -19.26664 -0.01700 -38.73665 -0.00312 -13.32387 -0.39861 9.00577 -0.00756 -38.23911 -0.00338 -1.55365 16.70236 6.85859 -4.32122 0.01366 0.34021 1.74118 9.98629 -21.53475 -0.00758 -43.57259 -0.02923 -9.93033 -2.54582 -15.92757 -0.00312 -31.78385 0.00017 6.38643 32.58785 -11.76585 -0.00637 28.89975 -0.00195 -0.05624 0.89541 -9.41035 -0.01240 21.24633 -0.00166 3.97610 0.11113 -9.52804 0.70026 0.33806 0.11328 26.45555 -4.33258 -9.05848 7.06997 -0.20793 -0.00726 -137.87799 -14.60988 -11.77881 27.90601 -0.25880 -0.06821 53.57423 -11.91396 -7.97000 26.33142 0.11737 -0.05736 -9.40926 27.56642 3.24899 4.87701 -1.04399 3.60799 -24.66570 4.20854 -9.07946 2.66500 0.00002 0.00002 0.00000 0.00000 10.00000 2.54300 0.00002 0.00001 0.00000 0.00000 15.00000 9.23201 -0.30100 2.14398 -19.99999 0.00000 0.00000 4.22500 0.00000 -0.00002 -25.00000 0.00000 0.00000 2.65400 0.00002 0.00001 -29.90551 2.49762 -4.33287 8.92000 0.00000 -0.00001 -19.99999 0.00000 0.00000 4.86300 0.00000 -0.00002 -25.00000 0.00000 0.00000 2.76500 0.00000 0.00000 -29.90551 2.49762 -4.33287 8.68899 -0.12600 -2.08701 -19.99999 0.00000 0.00000 4.53800 0.00000 0.00001 -25.00000 0.00000 0.00000 2.30501 0.00002 -0.00001 -29.90551 2.49762 -4.33287 8.39099 -0.81701 -3.75800 -19.99999 0.00000 0.00000 3.04401 0.00002 0.00000 -25.00000 0.00000 0.00000 1.97499 0.00000 0.00001 -29.90551 2.49762 -4.33287 -1.58978 -0.49758 0.10730 17.76846 1.39117 4.41490 -14.99274 0.09018 -0.02911 60.29074 6.52997 -7.16541 -26.63245 0.06649 0.08617 -13.91367 0.04131 22.79650 -22.44872 -0.04333 -0.01787 11.32239 29.42288 14.56285 -4.87701 -1.04400 3.60800 0.00000 0.00000 0.00000 -2.66498 0.00001 0.00000 0.00000 -0.00000 0.00000 -2.54300 0.00001 0.00000 -0.00000 0.00000 0.00000 -9.23201 -0.30100 2.14401 0.00000 0.00000 0.00000 -4.22497 0.00000 0.00000 0.00000 0.00000 -0.00000 -2.65399 0.00000 0.00001 0.00000 -0.00000 0.00000 -8.92001 0.00002 -0.00001 0.00000 0.00000 0.00000 -4.86299 -0.00001 0.00002 0.00000 0.00000 -0.00000 -2.76500 0.00001 -0.00002 0.00000 -0.00000 0.00000 -8.68901 -0.12599 -2.08701 0.00000 0.00000 0.00000 -4.53801 0.00002 0.00000 0.00000 0.00000 -0.00000 -2.30502 0.00000 0.00002 0.00000 -0.00000 0.00000 -8.39101 -0.81700 -3.75800 0.00000 0.00000 0.00000 -3.04399 0.00001 -0.00001 0.00000 0.00000 -0.00000 -1.97500 0.00001 0.00001 0.00000 -0.00000 0.00000 -0.00058 0.69696 0.00071 -0.00499 0.00609 -0.00407 -0.01566 6.28417 -0.00043 9.04945 -9.51777 -57.01054 
-144.06421 83.39143 -223.52763 -1.40672 -2.32374 116.36170 -2.38889 0.78857 0.36635 8.83899 4.04936 -18.82229 -0.02464 -38.92857 0.00226 -12.42112 -0.53070 8.66601 -0.01711 -37.67688 -0.01571 -1.58595 15.60245 7.12988 -4.38266 0.00125 0.31076 2.56312 10.00333 -21.11716 -0.00758 -43.56017 -0.02923 -10.08409 -2.63167 -16.84689 -0.00312 -31.51216 0.00017 7.09997 32.69681 -13.00986 -0.00637 29.11135 -0.00195 -0.05754 0.92382 -9.58516 -0.01240 21.27799 -0.00166 3.96141 0.00169 -9.95932 0.62946 0.33806 0.11328 30.10020 -5.33091 -9.28932 6.55350 -0.23711 -0.00726 -141.61136 -16.77626 -11.09938 27.99138 -0.21566 -0.06821 53.65669 -13.62278 -11.56576 26.41653 0.13644 -0.04731 -11.27097 27.41145 4.29681 4.87701 -1.04399 3.60799 -24.66570 4.20854 -9.07946 2.66500 0.00002 0.00002 0.00000 0.00000 10.00000 2.54300 0.00002 0.00001 0.00000 0.00000 15.00000 9.23201 -0.30100 2.14398 -19.99999 0.00000 0.00000 4.22500 0.00000 -0.00002 -25.00000 0.00000 0.00000 2.65400 0.00002 0.00001 -29.90551 2.49762 -4.33287 8.92000 0.00000 -0.00001 -19.99999 0.00000 0.00000 4.86300 0.00000 -0.00002 -25.00000 0.00000 0.00000 2.76500 0.00000 0.00000 -29.90551 2.49762 -4.33287 8.68899 -0.12600 -2.08701 -19.99999 0.00000 0.00000 4.53800 0.00000 0.00001 -25.00000 0.00000 0.00000 2.30501 0.00002 -0.00001 -29.90551 2.49762 -4.33287 8.39099 -0.81701 -3.75800 -19.99999 0.00000 0.00000 3.04401 0.00002 0.00000 -25.00000 0.00000 0.00000 1.97499 0.00000 0.00001 -29.90551 2.49762 -4.33287 -1.67873 -0.57621 0.10730 19.00974 1.32864 3.94641 -16.00748 0.02041 -0.03024 58.96166 8.51555 -6.34490 -26.09541 0.01807 0.05407 -13.62061 0.34872 23.44082 -22.00830 -0.05238 -0.05103 6.00215 27.08826 18.32331 -4.87701 -1.04400 3.60800 0.00000 0.00000 0.00000 -2.66498 0.00001 0.00000 0.00000 -0.00000 0.00000 -2.54300 0.00001 0.00000 -0.00000 0.00000 0.00000 -9.23201 -0.30100 2.14401 0.00000 0.00000 0.00000 -4.22497 0.00000 0.00000 0.00000 0.00000 -0.00000 -2.65399 0.00000 0.00001 0.00000 -0.00000 0.00000 -8.92001 0.00002 -0.00001 0.00000 0.00000 0.00000 -4.86299 -0.00001 0.00002 0.00000 0.00000 -0.00000 -2.76500 0.00001 -0.00002 0.00000 -0.00000 0.00000 -8.68901 -0.12599 -2.08701 0.00000 0.00000 0.00000 -4.53801 0.00002 0.00000 0.00000 0.00000 -0.00000 -2.30502 0.00000 0.00002 0.00000 -0.00000 0.00000 -8.39101 -0.81700 -3.75800 0.00000 0.00000 0.00000 -3.04399 0.00001 -0.00001 0.00000 0.00000 -0.00000 -1.97500 0.00001 0.00001 0.00000 -0.00000 0.00000 -0.00058 0.69696 0.00071 -0.00499 0.00609 -0.00407 -0.01566 6.28894 -0.00043 11.59548 -9.60401 -57.12494 
-144.04030 83.23563 -223.44693 -1.28448 -2.41725 118.35152 -2.41137 0.80427 0.24291 10.21976 2.40414 -20.58588 -0.10226 -37.72976 -0.05274 -13.47584 -0.08465 8.18228 0.01118 -38.32043 0.03082 0.31092 13.85415 -0.76127 -4.41378 -0.00013 0.20387 3.24929 10.07962 -22.14471 -0.00758 -43.59421 -0.02923 -10.14624 -2.71646 -17.64082 -0.00312 -31.30245 0.00017 7.63955 32.70810 -13.96610 -0.00637 29.24977 -0.00372 0.55858 0.55882 -10.50043 -0.01240 21.33383 -0.00166 3.83038 -0.03622 -10.84276 0.62232 0.33806 0.11328 29.43939 -5.35278 -9.52737 6.49158 -0.18632 -0.00726 -141.81682 -17.60307 -10.64137 28.04140 -0.17386 -0.05990 52.64072 -15.12427 -13.89074 26.50542 0.12621 -0.01571 -9.40138 23.20664 3.98301 4.87701 -1.04399 3.60799 -24.66570 4.20854 -9.07946 2.66500 0.00002 0.00002 0.00000 0.00000 10.00000 2.54300 0.00002 0.00001 0.00000 0.00000 15.00000 9.23201 -0.30100 2.14398 -19.99999 0.00000 0.00000 4.22500 0.00000 -0.00002 -25.00000 0.00000 0.00000 2.65400 0.00002 0.00001 -29.90551 2.49762 -4.33287 8.92000 0.00000 -0.00001 -19.99999 0.00000 0.00000 4.86300 0.00000 -0.00002 -25.00000 0.00000 0.00000 2.76500 0.00000 0.00000 -29.90551 2.49762 -4.33287 8.68899 -0.12600 -2.08701 -19.99999 0.00000 0.00000 4.53800 0.00000 0.00001 -25.00000 0.00000 0.00000 2.30501 0.00002 -0.00001 -29.90551 2.49762 -4.33287 8.39099 -0.81701 -3.75800 -19.99999 0.00000 0.00000 3.04401 0.00002 0.00000 -25.00000 0.00000 0.00000 1.97499 0.00000 0.00001 -29.90551 2.49762 -4.33287 -1.71439 -0.62753 0.10730 20.05082 1.38703 3.86098 -16.46684 -0.01718 -0.01873 56.05617 10.21456 -5.52734 -26.30053 0.02858 0.08073 -11.91023 1.45084 24.68003 -21.58253 -0.07520 -0.10676 -0.93346 21.75796 23.86747 -4.87701 -1.04400 3.60800 0.00000 0.00000 0.00000 -2.66498 0.00001 0.00000 0.00000 -0.00000 0.00000 -2.54300 0.00001 0.00000 -0.00000 0.00000 0.00000 -9.23201 -0.30100 2.14401 0.00000 0.00000 0.00000 -4.22497 0.00000 0.00000 0.00000 0.00000 -0.00000 -2.65399 0.00000 0.00001 0.00000 -0.00000 0.00000 -8.92001 0.00002 -0.00001 0.00000 0.00000 0.00000 -4.86299 -0.00001 0.00002 0.00000 0.00000 -0.00000 -2.76500 0.00001 -0.00002 0.00000 -0.00000 0.00000 -8.68901 -0.12599 -2.08701 0.00000 0.00000 0.00000 -4.53801 0.00002 0.00000 0.00000 0.00000 -0.00000 -2.30502 0.00000 0.00002 0.00000 -0.00000 0.00000 -8.39101 -0.81700 -3.75800 0.00000 0.00000 0.00000 -3.04399 0.00001 -0.00001 0.00000 0.00000 -0.00000 -1.97500 0.00001 0.00001 0.00000 -0.00000 0.00000 -0.00058 0.69696 0.00071 -0.00499 0.00609 -0.00407 -0.01196 6.30476 -0.00043 11.16885 -9.26562 -57.11915 
-143.97838 83.27040 -223.25690 -1.13896 -2.60667 123.34566 -2.52130 0.82583 -0.04203 11.85969 0.00798 -25.31283 -0.14728 -36.54826 -0.08018 -15.70672 1.30256 7.97589 0.00518 -39.00867 0.01937 1.38464 19.74485 -3.95960 -4.36404 -0.03110 -0.11035 4.55432 9.84021 -26.04894 -0.00758 -43.77199 -0.02923 -10.17850 -2.75967 -18.58329 -0.00305 -31.13090 0.00017 8.20683 32.54265 -15.03412 -0.00423 29.24255 -0.01693 1.16573 0.13230 -13.58069 -0.01240 21.35551 -0.00166 3.73842 -0.10962 -12.93205 0.62756 0.33806 0.11124 28.44404 -5.02439 -9.27560 6.51193 -0.13462 -0.00726 -141.57312 -17.93222 -10.25910 28.07114 -0.13474 -0.04852 52.18755 -16.29997 -15.80562 26.56848 0.10695 -0.00053 -10.17792 21.36711 5.37824 4.87701 -1.04399 3.60799 -24.66570 4.20854 -9.07946 2.66500 0.00002 0.00002 0.00000 0.00000 10.00000 2.54300 0.00002 0.00001 0.00000 0.00000 15.00000 9.23201 -0.30100 2.14398 -19.99999 0.00000 0.00000 4.22500 0.00000 -0.00002 -25.00000 0.00000 0.00000 2.65400 0.00002 0.00001 -29.90551 2.49762 -4.33287 8.92000 0.00000 -0.00001 -19.99999 0.00000 0.00000 4.86300 0.00000 -0.00002 -25.00000 0.00000 0.00000 2.76500 0.00000 0.00000 -29.90551 2.49762 -4.33287 8.68899 -0.12600 -2.08701 -19.99999 0.00000 0.00000 4.53800 0.00000 0.00001 -25.00000 0.00000 0.00000 2.30501 0.00002 -0.00001 -29.90551 2.49762 -4.33287 8.39099 -0.81701 -3.75800 -19.99999 0.00000 0.00000 3.04401 0.00002 0.00000 -25.00000 0.00000 0.00000 1.97499 0.00000 0.00001 -29.90551 2.49762 -4.33287 -1.71850 -0.62211 0.10730 19.83337 1.33600 3.72587 -16.47442 -0.02291 -0.01142 54.41184 11.90478 -4.28752 -26.70896 0.04631 0.10265 -10.37374 2.59001 25.25705 -21.25497 -0.07857 -0.11697 -5.00579 18.63051 26.23901 -4.87701 -1.04400 3.60800 0.00000 0.00000 0.00000 -2.66498 0.00001 0.00000 0.00000 -0.00000 0.00000 -2.54300 0.00001 0.00000 -0.00000 0.00000 0.00000 -9.23201 -0.30100 2.14401 0.00000 0.00000 0.00000 -4.22497 0.00000 0.00000 0.00000 0.00000 -0.00000 -2.65399 0.00000 0.00001 0.00000 -0.00000 0.00000 -8.92001 0.00002 -0.00001 0.00000 0.00000 0.00000 -4.86299 -0.00001 0.00002 0.00000 0.00000 -0.00000 -2.76500 0.00001 -0.00002 0.00000 -0.00000 0.00000 -8.68901 -0.12599 -2.08701 0.00000 0.00000 0.00000 -4.53801 0.00002 0.00000 0.00000 0.00000 -0.00000 -2.30502 0.00000 0.00002 0.00000 -0.00000 0.00000 -8.39101 -0.81700 -3.75800 0.00000 0.00000 0.00000 -3.04399 0.00001 -0.00001 0.00000 0.00000 -0.00000 -1.97500 0.00001 0.00001 0.00000 -0.00000 0.00000 -0.00058 0.69696 0.00071 -0.00499 0.00609 -0.00407 -0.00859 6.31566 -0.00043 10.79753 -9.10886 -56.73193 
